<?xml version="1.0" encoding="utf-8"?>
<!-- Generator: Adobe Illustrator 22.1.0, SVG Export Plug-In . SVG Version: 6.00 Build 0)  -->
<svg version="1.1" id="Слой_1" xmlns="http://www.w3.org/2000/svg" xmlns:xlink="http://www.w3.org/1999/xlink" x="0px" y="0px"
	 viewBox="0 0 357.7 361.1" style="enable-background:new 0 0 357.7 361.1;" xml:space="preserve">
<g>
	<path d="M179,361.1c-91,0-165.2-74-165.1-164.6C14,105,87.6,31.2,178.6,31.2c91.4,0.1,165.2,73.9,165.1,165.3
		C343.6,287.2,269.7,361.1,179,361.1z M328.4,196.3c0.5-81.5-66.5-149.3-148.2-149.8c-82.5-0.5-150.5,66-151,147.7
		c-0.5,83.5,65.6,151,148.3,151.4C260.7,346.1,327.9,279.5,328.4,196.3z"/>
	<path d="M348.7,81.8c-0.9-0.5-3-1.2-4.5-2.6c-25-21.6-50-43.3-75-65.1c-4-3.5-4.5-8.1-1.4-11.5c3-3.3,7.5-3.4,11.4-0.1
		c25,21.7,50,43.4,75,65.1c2.9,2.5,4.4,5.4,2.9,9.3C355.8,80.2,353.3,81.7,348.7,81.8z"/>
	<path d="M92.9,7.3c-1.8,2.8-2.6,5.2-4.4,6.8c-25,21.9-50.1,43.6-75.2,65.3C9.5,82.7,4.9,82.5,2,79.3c-3-3.4-2.6-8.1,1.4-11.5
		c25-21.7,50-43.4,75-65.1C81,0.3,84.1-1,87.2,0.9C89.4,2.2,90.8,4.8,92.9,7.3z"/>
	<path d="M144,233.5c1.3-1.5,2.1-2.8,3.2-3.9c28.2-28.3,56.5-56.5,84.8-84.8c1.1-1.1,2.1-2.2,3.3-3c3-2,7.1-1.5,9.6,1.1
		c2.3,2.4,2.8,6.5,0.9,9.3c-0.7,1.1-1.8,2.1-2.7,3.1c-30.7,30.7-61.4,61.5-92.2,92.2c-5.3,5.3-9,5.4-14.3,0.1
		c-7.8-7.8-15.6-15.5-23.3-23.3c-3.5-3.5-3.9-7.4-1.3-10.7c3.1-3.9,8-4,12.1-0.1c3.3,3.2,6.6,6.5,9.8,9.8
		C137.1,226.5,140.2,229.7,144,233.5z"/>
</g>
</svg>
