<?xml version="1.0" encoding="utf-8"?>
<!-- Generator: Adobe Illustrator 22.1.0, SVG Export Plug-In . SVG Version: 6.00 Build 0)  -->
<svg version="1.1" id="Слой_1" xmlns="http://www.w3.org/2000/svg" xmlns:xlink="http://www.w3.org/1999/xlink" x="0px" y="0px"
	 viewBox="0 0 324 323.7" style="enable-background:new 0 0 324 323.7;" xml:space="preserve">
<style type="text/css">
	.st0{fill:#FFFFFF;}
</style>
<g>
	<path class="st0" d="M248.4,323.7c16-0.3,27.3-4.7,36.6-13.7c9.1-8.9,18.1-17.9,27.1-27c18.3-18.3,15.2-44.7-6.8-58.3
		c-15-9.2-30-18.4-45.1-27.5c-16.5-10-33.4-8-47.1,5.7c-5,4.9-9.8,10-14.9,14.8c-1,1-3.2,1.8-4.5,1.4c-46.8-12.2-77.3-41-88.9-88.5
		c-0.3-1.3,0.3-3.5,1.3-4.5c5.3-5.6,10.9-11,16.3-16.5c11.7-12,14-29.1,5.6-43.5c-9.8-16.7-19.9-33.2-30.3-49.5
		C85.7-2.5,59.4-5.6,43.1,9.9c-10.2,9.7-20.2,19.7-29.9,30C2.6,51.1-2,64.7,0.8,79.9c5.8,31.3,15.8,61.4,30.1,89.9
		c22.1,44.1,53.6,79.8,95.1,106.7c31.9,20.6,66.8,34.2,103.5,43.3C236.6,321.6,244,322.8,248.4,323.7z"/>
	<path d="M248.4,323.7c-4.4-0.9-11.7-2.2-19-4c-36.7-9.1-71.6-22.7-103.5-43.3c-41.5-26.8-73-62.6-95.1-106.7
		C16.6,141.3,6.6,111.2,0.8,79.9c-2.8-15.2,1.7-28.8,12.3-40c9.7-10.3,19.7-20.2,29.9-30C59.4-5.6,85.7-2.5,97.8,16.5
		c10.4,16.3,20.4,32.9,30.3,49.5c8.5,14.3,6.1,31.5-5.6,43.5c-5.4,5.6-11,10.9-16.3,16.5c-1,1-1.6,3.1-1.3,4.5
		c11.6,47.6,42,76.3,88.9,88.5c1.3,0.3,3.4-0.4,4.5-1.4c5.1-4.8,9.9-9.8,14.9-14.8c13.7-13.6,30.6-15.7,47.1-5.7
		c15,9.1,30.1,18.3,45.1,27.5c22,13.6,25.1,40,6.8,58.3c-9,9-18,18.1-27.1,27C275.7,319,264.4,323.4,248.4,323.7z"/>
</g>
</svg>
