<?xml version="1.0" encoding="utf-8"?>
<!-- Generator: Adobe Illustrator 22.1.0, SVG Export Plug-In . SVG Version: 6.00 Build 0)  -->
<svg version="1.1" id="Слой_1" xmlns="http://www.w3.org/2000/svg" xmlns:xlink="http://www.w3.org/1999/xlink" x="0px" y="0px"
	 viewBox="0 0 244.6 312.2" style="enable-background:new 0 0 244.6 312.2;" xml:space="preserve">
<g>
	<path d="M0,130.3C0,69.9,32.4,23.2,82.1,6.7c71.2-23.7,147.8,17.6,160.6,96.5c6.3,38.7-3.7,73.6-28.5,104
		c-26.9,32.9-54,65.6-80.9,98.5c-7.2,8.7-14.9,8.7-22,0C83.2,271.5,54.8,237.5,27.1,203C8.7,180,0.3,153.2,0,130.3z M122.3,72.1
		c-26.7,0-48.1,21.5-48.1,48.2c0,26.3,21.6,47.8,48.1,47.8c26.3,0,48-21.7,47.9-48C170.2,93.6,148.7,72.1,122.3,72.1z"/>
</g>
</svg>
