<?xml version="1.0" encoding="utf-8"?>
<!-- Generator: Adobe Illustrator 22.1.0, SVG Export Plug-In . SVG Version: 6.00 Build 0)  -->
<svg version="1.1" id="Слой_1" xmlns="http://www.w3.org/2000/svg" xmlns:xlink="http://www.w3.org/1999/xlink" x="0px" y="0px"
	 viewBox="0 0 384.2 320" style="enable-background:new 0 0 384.2 320;" xml:space="preserve">
<g>
	<path d="M384.2,24.9c-2.2,10.1-4.5,20.1-6.7,30.2c-16.4,76.8-32.8,153.6-49.1,230.3c-1.2,5.6-2.2,11.3-3.7,16.8
		c-4.8,18.3-18.2,22.9-33.5,11.7c-26.2-19.2-52.4-38.4-78.6-57.6c-7.7-5.6-7.6-5.6-14.4,0.8c-12.7,12.2-25.5,24.3-38.2,36.5
		c-4.1,4-8.9,6.3-15.3,6.3c0.4-5.4,0.7-10.7,1.1-16c1.7-23.4,3.3-46.9,5.1-70.3c0.1-1.8,1.3-4,2.7-5.3
		c52.9-47.7,105.9-95.3,159-142.9c0.5-0.4,1.1-0.7,1.4-1.3c1-1.8,1.9-3.7,2.9-5.6c-2.3-0.5-4.7-1.5-6.8-1.2
		c-2.5,0.4-4.9,1.8-7.1,3.2c-65.8,41.1-131.5,82.2-197.2,123.4c-3.1,2-5.7,2.4-9.3,1.3c-27.2-8.7-54.6-17-81.8-25.6
		c-3.6-1.1-7.2-2.9-10.3-5.1c-5.2-3.7-5.8-9.1-1.1-13.4c3.7-3.4,8.1-6.5,12.7-8.3c25.6-10.2,51.4-19.9,77.2-29.8
		C181.1,69.5,269.2,35.8,357.3,2.2c2.5-1,5.2-1.8,7.9-2C375-0.8,381,3.6,383.5,13c0.2,0.7,0.5,1.4,0.7,2.1
		C384.2,18.4,384.2,21.6,384.2,24.9z"/>
</g>
</svg>
