<?xml version="1.0" encoding="utf-8"?>
<!-- Generator: Adobe Illustrator 22.1.0, SVG Export Plug-In . SVG Version: 6.00 Build 0)  -->
<svg version="1.1" id="Слой_1" xmlns="http://www.w3.org/2000/svg" xmlns:xlink="http://www.w3.org/1999/xlink" x="0px" y="0px"
	 viewBox="0 0 384 223.8" style="enable-background:new 0 0 384 223.8;" xml:space="preserve">
<g>
	<path d="M384,215.4c-2.6,6-7.5,8.3-13.7,8.4c-15,0.1-30,0-45,0c-7,0-12.4-3.5-17.1-8.2c-6.4-6.5-12.6-13.2-18.8-19.9
		c-10.7-11.4-21.9-22.3-34.8-31.2c-6.3-4.3-12.9-8.2-21-7.7c-5.4,0.3-7.8,2.2-8.4,7.6c-0.5,4.6-0.7,9.2-0.7,13.8
		c-0.1,10,0.1,20,0,30c0,8.3-2.9,12.8-11.2,13.8c-10.1,1.2-20.5,2.1-30.5,1.1c-38.7-4.1-69.8-23.3-96.4-50.6
		c-17.7-18.2-31.3-39.5-44.5-61C25.8,85.3,12.2,58.2,3.5,28.8c-1.3-4.5-2.4-9.2-3.2-13.9c-1.6-9.4,2.5-14.6,12-14.7
		c15.2-0.2,30.5-0.1,45.7-0.1c6.8,0,11.8,3.2,14.5,9.4c3.1,7.1,5.6,14.4,8.5,21.6c10.5,26.1,23,51.3,39.8,74
		c3.5,4.7,7.4,9.1,11.4,13.4c2.2,2.3,4.8,4.4,7.6,6c6.4,3.8,11.1,1.4,12.3-6c0.1-0.6,0.1-1.2,0.1-1.9c0-23.1,0.2-46.2,0-69.3
		c-0.1-9.9-3.7-18.8-10.1-26.4c-1.6-1.9-3.2-3.9-4.5-6c-4-6.4-0.3-13.8,7.2-14.7C146,0,147.1,0,148.3,0c21,0,42,0,63,0
		c9.5,0,13,3.3,13,12.8c0.2,27,0.1,54,0.1,81c0,2.4,0.1,4.8,0.5,7.1c1.3,7.4,6.1,10,12.4,5.9c5.4-3.5,10.5-7.8,14.8-12.5
		C269.8,74.5,283,51.7,294.8,28c2.7-5.4,5.1-10.8,7.6-16.3C305.7,4.1,311.5,0,319.9,0c14.6,0,29.2,0,43.9,0c1.8,0,3.8,0.3,5.5,0.8
		c5.3,1.5,8.2,5.1,6.6,10.4c-2.3,7.8-4.9,15.7-8.7,23c-13.4,25.8-30,49.5-46.7,73.2c-8.2,11.6-7.8,14.8,2.1,25.1
		c13.8,14.5,27.5,29,40.9,43.9c8.6,9.6,16.1,20,20.6,32.3C384,210.9,384,213.2,384,215.4z"/>
</g>
</svg>
