<?xml version="1.0" encoding="utf-8"?>
<!-- Generator: Adobe Illustrator 22.1.0, SVG Export Plug-In . SVG Version: 6.00 Build 0)  -->
<svg version="1.1" id="Слой_1" xmlns="http://www.w3.org/2000/svg" xmlns:xlink="http://www.w3.org/1999/xlink" x="0px" y="0px"
	 viewBox="0 0 360 360.1" style="enable-background:new 0 0 360 360.1;" xml:space="preserve">
<g>
	<path d="M178.6,360.1c-33.1-0.3-64.5-9.2-93.3-27.2c-2.3-1.4-4.1-1.6-6.5-0.5C58.4,341.2,38,350,17.6,358.7
		c-7.9,3.3-15.8-0.3-17.2-8.1c-0.5-2.9,0.2-6.3,1.4-9c8.4-20.1,17.1-40.2,25.8-60.2c1-2.4,1-4.2-0.5-6.5
		c-50.2-80.3-29-186.2,48.2-241c37-26.2,78.2-37.5,123.2-32.7c82.2,8.7,146.5,70.5,159.3,152.1c13.7,87.2-40.8,173.8-125,198.9
		C215.5,357.3,197.7,360.1,178.6,360.1z M220.1,272.2c18.7,0.1,30.7-4,40.2-14.4c3.8-4.2,7.7-8.2,11.3-12.5
		c5.1-6.1,4.7-13.7-0.8-19.3c-6.8-6.9-13.7-13.8-20.7-20.7c-5.6-5.5-12.5-5.5-18.2,0.1c-3.6,3.5-7.2,6.9-10.6,10.6
		c-2.1,2.3-4.5,3.3-7.4,2.4c-5.1-1.5-10.6-2.5-15.1-5.1c-22-12.5-39.3-29.8-52-51.6c-2.7-4.7-3.9-10.4-5.5-15.8
		c-0.8-2.8,0.1-5.3,2.4-7.4c3.8-3.5,7.3-7.2,10.9-10.8c5.4-5.5,5.4-12.4,0-18c-6.8-6.9-13.7-13.8-20.7-20.7
		c-5.7-5.6-13.2-6-19.3-0.9c-4.6,3.8-9,8-13.3,12.1c-7.4,7-11.7,15.6-13.1,25.8c-2.2,16.1,1.5,31.2,8.8,45.2
		c19.5,37.6,48.4,66.3,84.6,87.9C195,267.3,209.4,272.1,220.1,272.2z"/>
</g>
</svg>
